<svg width="28" height="28" viewBox="0 0 18 18" fill="none" xmlns="http://www.w3.org/2000/svg">
  <g opacity=".5">
    <path d="M9.46 3.52c.5-1.05 1.82-1.46 2.82-.9-.32.88-1.14 1.48-2.08 1.53-.24.01-.48-.02-.74-.08.01-.17.01-.36 0-.55Z" fill="#74AE4B"/>
    <path d="M8.12 4.24c-.44-1-1.48-1.65-2.58-1.52.07 1.02.71 1.92 1.62 2.23.31.1.63.14.96.11V4.24Z" fill="#8BC162"/>
    <path d="M8.98 4.82c2.62 0 4.76 2.11 4.76 4.7 0 2.65-2.16 4.79-4.83 4.79C6.28 14.31 4.13 12.17 4.13 9.52c0-2.59 2.15-4.7 4.85-4.7Z" fill="url(#peachFill)"/>
    <path d="M8.92 4.88v9.38" stroke="#DD6553" stroke-linecap="round" stroke-width=".75"/>
    <path d="M8.05 5.08C5.87 5.33 4.2 7.17 4.2 9.4c0 2.37 1.92 4.3 4.29 4.3 1.68 0 3.12-.96 3.85-2.36-.36.18-.76.28-1.2.28-1.4 0-2.53-1.14-2.53-2.54 0-1.05.64-1.96 1.53-2.34-.58-.87-1.61-1.33-2.09-1.66Z" fill="#FFD9A8"/>
    <ellipse cx="7.22" cy="6.6" rx="2.4" ry="1.38" transform="rotate(-26 7.22 6.6)" fill="#FFF3E4"/>
  </g>
  <defs>
    <radialGradient id="peachFill" cx="0" cy="0" r="1" gradientTransform="translate(7.45 6.32) rotate(48.3) scale(8.2)" gradientUnits="userSpaceOnUse">
      <stop stop-color="#FFF0DB"/>
      <stop offset=".35" stop-color="#FFC67E"/>
      <stop offset=".76" stop-color="#FF8B63"/>
      <stop offset="1" stop-color="#E86456"/>
    </radialGradient>
  </defs>
</svg>
